<?xml version="1.0" encoding="utf-8"?>
<!-- Generator: Adobe Illustrator 19.2.0, SVG Export Plug-In . SVG Version: 6.00 Build 0)  -->
<svg version="1.1" id="Layer_1" xmlns="http://www.w3.org/2000/svg" xmlns:xlink="http://www.w3.org/1999/xlink" x="0px" y="0px"
	 viewBox="0 0 84 38" style="enable-background:new 0 0 84 38;" xml:space="preserve">
<g>
	<g>
		<g>
			<g>
				<path d="M9.7,0.2C9.6,0.1,9.5,0,9.4,0L6.3,0C6.1,0,6,0.1,6,0.2L0,18.5c0,0.1,0,0.2,0,0.3c0.1,0.1,0.1,0.1,0.2,0.1l2.5,0
					c0.1,0,0.2-0.1,0.3-0.2l1.7-5c0,0,0.8-2.7,0.8-2.7c0,0,0.6-1.7,0.6-1.7C6.8,7.1,7.5,5,7.8,3.9c0.3,1.1,0.9,2.8,1.5,4.8
					c0.4,1.2,0.7,2.3,0.8,2.5l0,0c0,0,0.7,2.3,0.7,2.3l1.6,5.2c0,0.1,0.2,0.2,0.3,0.2l2.5,0c0.1,0,0.2,0,0.2-0.1
					c0.1-0.1,0.1-0.2,0-0.3L9.7,0.2z"/>
				<path d="M41.4,15.8c0,0-7,0-7.5,0c0-0.6,0-15.4,0-15.4c0-0.2-0.1-0.3-0.3-0.3l-2.5,0c-0.2,0-0.3,0.1-0.3,0.3l0,18.1
					c0,0.2,0.1,0.3,0.3,0.3l10.3,0c0.2,0,0.3-0.1,0.3-0.3l0-2.4C41.7,16,41.6,15.9,41.4,15.8z"/>
				<path d="M48.5,0.1l-2.5,0c-0.2,0-0.3,0.1-0.3,0.3l0,18.1c0,0.2,0.1,0.3,0.3,0.3l2.5,0c0.2,0,0.3-0.1,0.3-0.3l0-18.1
					C48.8,0.3,48.6,0.1,48.5,0.1z"/>
				<path d="M67.1,0.2l-2.5,0c-0.1,0-0.2,0.1-0.3,0.2l-3.9,12.8c0,0,0,0,0,0c0,0-0.2,1-0.3,1.2c-0.1-0.4-0.2-0.9-0.3-1.2
					c0,0-3.9-12.8-3.9-12.8c0-0.1-0.1-0.2-0.3-0.2l-2.6,0c-0.1,0-0.2,0-0.2,0.1c-0.1,0.1-0.1,0.2,0,0.3l5.5,18.1
					c0,0.1,0.1,0.2,0.3,0.2l3,0c0.1,0,0.2-0.1,0.3-0.2l5.5-18.1c0-0.1,0-0.2,0-0.3C67.3,0.2,67.2,0.2,67.1,0.2z"/>
				<path d="M82.5,16c0,0-7.6,0-8.1,0c0-0.5,0-4.9,0-5.5c0.5,0,5.8,0,5.8,0c0.2,0,0.3-0.1,0.3-0.3l0-2.3c0-0.2-0.1-0.3-0.3-0.3
					c0,0-5.2,0-5.8,0c0-0.5,0-4.2,0-4.7c0.5,0,8.1,0,8.1,0c0.2,0,0.3-0.1,0.3-0.3l0-2.3c0-0.2-0.1-0.3-0.3-0.3l-10.8,0
					c-0.2,0-0.3,0.1-0.3,0.3l0,18.1c0,0.2,0.1,0.3,0.3,0.3l10.9,0c0.2,0,0.3-0.1,0.3-0.3l0-2.3C82.8,16.2,82.6,16,82.5,16z"/>
				<path d="M25.2,8.5c0,0-2.1,0-2.6,0c0-0.5,0-2.4,0-2.4c0-0.2-0.1-0.3-0.3-0.3h-0.9c-0.2,0-0.3,0.1-0.3,0.3c0,0,0,1.9,0,2.4
					c-0.5,0-2.6,0-2.6,0c-0.2,0-0.3,0.1-0.3,0.3v0.9c0,0.2,0.1,0.3,0.3,0.3c0,0,2.1,0,2.6,0c0,0.5,0,2.5,0,2.5
					c0,0.2,0.1,0.3,0.3,0.3l0.9,0c0.2,0,0.3-0.1,0.3-0.3c0,0,0-2,0-2.5c0.5,0,2.6,0,2.6,0c0.2,0,0.3-0.1,0.3-0.3l0-0.9
					C25.5,8.6,25.3,8.5,25.2,8.5z"/>
			</g>
		</g>
	</g>
	<g>
		<g>
			<path d="M3.7,35.3l1.9-5.9H7l-2.7,7.5H3l-2.7-7.5h1.4L3.7,35.3z"/>
			<path d="M15.4,36.9h-1.3v-7.5h1.3V36.9z"/>
			<path d="M27.6,33.6h-3.1v2.3h3.6v1h-4.9v-7.5H28v1.1h-3.6v2.1h3.1V33.6z"/>
			<path d="M40.7,30.5h-2.4v6.5h-1.3v-6.5h-2.3v-1.1h6V30.5z"/>
			<path d="M53.8,36.9h-1.3l-3.4-5.3v5.3h-1.3v-7.5h1.3l3.4,5.4v-5.4h1.3V36.9z"/>
			<path d="M65.8,35.2h-2.9l-0.6,1.8h-1.4l2.8-7.5h1.2l2.9,7.5h-1.4L65.8,35.2z M63.2,34.1h2.2L64.3,31L63.2,34.1z"/>
			<path d="M76.4,29.4l2.2,5.8l2.2-5.8h1.7v7.5h-1.3v-2.5l0.1-3.3l-2.2,5.8h-0.9l-2.2-5.8l0.1,3.3v2.5h-1.3v-7.5H76.4z"/>
		</g>
	</g>
</g>
</svg>
